# Wavefront OBJ file automatically generated by Tiled2Unity

# Vertices (Count = 441)
v 0 -64 0
v -64 -64 0
v -64 0 0
v 0 0 0
v -128 -64 0
v -128 0 0
v -192 -64 0
v -192 0 0
v -256 -64 0
v -256 0 0
v -320 -64 0
v -320 0 0
v -384 -64 0
v -384 0 0
v -448 -64 0
v -448 0 0
v -512 -64 0
v -512 0 0
v -576 -64 0
v -576 0 0
v -640 -64 0
v -640 0 0
v -704 -64 0
v -704 0 0
v -768 -64 0
v -768 0 0
v -832 -64 0
v -832 0 0
v -896 -64 0
v -896 0 0
v -960 -64 0
v -960 0 0
v -1024 -64 0
v -1024 0 0
v -1088 -64 0
v -1088 0 0
v -1152 -64 0
v -1152 0 0
v -1216 -64 0
v -1216 0 0
v -1280 -64 0
v -1280 0 0
v 0 -128 0
v -64 -128 0
v -128 -128 0
v -192 -128 0
v -256 -128 0
v -320 -128 0
v -384 -128 0
v -448 -128 0
v -512 -128 0
v -576 -128 0
v -640 -128 0
v -704 -128 0
v -768 -128 0
v -832 -128 0
v -896 -128 0
v -960 -128 0
v -1024 -128 0
v -1088 -128 0
v -1152 -128 0
v -1216 -128 0
v -1280 -128 0
v 0 -192 0
v -64 -192 0
v -128 -192 0
v -192 -192 0
v -256 -192 0
v -320 -192 0
v -384 -192 0
v -448 -192 0
v -512 -192 0
v -576 -192 0
v -640 -192 0
v -704 -192 0
v -768 -192 0
v -832 -192 0
v -896 -192 0
v -960 -192 0
v -1024 -192 0
v -1088 -192 0
v -1152 -192 0
v -1216 -192 0
v -1280 -192 0
v 0 -256 0
v -64 -256 0
v -128 -256 0
v -192 -256 0
v -256 -256 0
v -320 -256 0
v -384 -256 0
v -448 -256 0
v -512 -256 0
v -576 -256 0
v -640 -256 0
v -704 -256 0
v -768 -256 0
v -832 -256 0
v -896 -256 0
v -960 -256 0
v -1024 -256 0
v -1088 -256 0
v -1152 -256 0
v -1216 -256 0
v -1280 -256 0
v 0 -320 0
v -64 -320 0
v -128 -320 0
v -192 -320 0
v -256 -320 0
v -320 -320 0
v -384 -320 0
v -448 -320 0
v -512 -320 0
v -576 -320 0
v -640 -320 0
v -704 -320 0
v -768 -320 0
v -832 -320 0
v -896 -320 0
v -960 -320 0
v -1024 -320 0
v -1088 -320 0
v -1152 -320 0
v -1216 -320 0
v -1280 -320 0
v 0 -384 0
v -64 -384 0
v -128 -384 0
v -192 -384 0
v -256 -384 0
v -320 -384 0
v -384 -384 0
v -448 -384 0
v -512 -384 0
v -576 -384 0
v -640 -384 0
v -704 -384 0
v -768 -384 0
v -832 -384 0
v -896 -384 0
v -960 -384 0
v -1024 -384 0
v -1088 -384 0
v -1152 -384 0
v -1216 -384 0
v -1280 -384 0
v 0 -448 0
v -64 -448 0
v -128 -448 0
v -192 -448 0
v -256 -448 0
v -320 -448 0
v -384 -448 0
v -448 -448 0
v -512 -448 0
v -576 -448 0
v -640 -448 0
v -704 -448 0
v -768 -448 0
v -832 -448 0
v -896 -448 0
v -960 -448 0
v -1024 -448 0
v -1088 -448 0
v -1152 -448 0
v -1216 -448 0
v -1280 -448 0
v 0 -512 0
v -64 -512 0
v -128 -512 0
v -192 -512 0
v -256 -512 0
v -320 -512 0
v -384 -512 0
v -448 -512 0
v -512 -512 0
v -576 -512 0
v -640 -512 0
v -704 -512 0
v -768 -512 0
v -832 -512 0
v -896 -512 0
v -960 -512 0
v -1024 -512 0
v -1088 -512 0
v -1152 -512 0
v -1216 -512 0
v -1280 -512 0
v 0 -576 0
v -64 -576 0
v -128 -576 0
v -192 -576 0
v -256 -576 0
v -320 -576 0
v -384 -576 0
v -448 -576 0
v -512 -576 0
v -576 -576 0
v -640 -576 0
v -704 -576 0
v -768 -576 0
v -832 -576 0
v -896 -576 0
v -960 -576 0
v -1024 -576 0
v -1088 -576 0
v -1152 -576 0
v -1216 -576 0
v -1280 -576 0
v 0 -640 0
v -64 -640 0
v -128 -640 0
v -192 -640 0
v -256 -640 0
v -320 -640 0
v -384 -640 0
v -448 -640 0
v -512 -640 0
v -576 -640 0
v -640 -640 0
v -704 -640 0
v -768 -640 0
v -832 -640 0
v -896 -640 0
v -960 -640 0
v -1024 -640 0
v -1088 -640 0
v -1152 -640 0
v -1216 -640 0
v -1280 -640 0
v 0 -704 0
v -64 -704 0
v -128 -704 0
v -192 -704 0
v -256 -704 0
v -320 -704 0
v -384 -704 0
v -448 -704 0
v -512 -704 0
v -576 -704 0
v -640 -704 0
v -704 -704 0
v -768 -704 0
v -832 -704 0
v -896 -704 0
v -960 -704 0
v -1024 -704 0
v -1088 -704 0
v -1152 -704 0
v -1216 -704 0
v -1280 -704 0
v 0 -768 0
v -64 -768 0
v -128 -768 0
v -192 -768 0
v -256 -768 0
v -320 -768 0
v -384 -768 0
v -448 -768 0
v -512 -768 0
v -576 -768 0
v -640 -768 0
v -704 -768 0
v -768 -768 0
v -832 -768 0
v -896 -768 0
v -960 -768 0
v -1024 -768 0
v -1088 -768 0
v -1152 -768 0
v -1216 -768 0
v -1280 -768 0
v 0 -832 0
v -64 -832 0
v -128 -832 0
v -192 -832 0
v -256 -832 0
v -320 -832 0
v -384 -832 0
v -448 -832 0
v -512 -832 0
v -576 -832 0
v -640 -832 0
v -704 -832 0
v -768 -832 0
v -832 -832 0
v -896 -832 0
v -960 -832 0
v -1024 -832 0
v -1088 -832 0
v -1152 -832 0
v -1216 -832 0
v -1280 -832 0
v 0 -896 0
v -64 -896 0
v -128 -896 0
v -192 -896 0
v -256 -896 0
v -320 -896 0
v -384 -896 0
v -448 -896 0
v -512 -896 0
v -576 -896 0
v -640 -896 0
v -704 -896 0
v -768 -896 0
v -832 -896 0
v -896 -896 0
v -960 -896 0
v -1024 -896 0
v -1088 -896 0
v -1152 -896 0
v -1216 -896 0
v -1280 -896 0
v 0 -960 0
v -64 -960 0
v -128 -960 0
v -192 -960 0
v -256 -960 0
v -320 -960 0
v -384 -960 0
v -448 -960 0
v -512 -960 0
v -576 -960 0
v -640 -960 0
v -704 -960 0
v -768 -960 0
v -832 -960 0
v -896 -960 0
v -960 -960 0
v -1024 -960 0
v -1088 -960 0
v -1152 -960 0
v -1216 -960 0
v -1280 -960 0
v 0 -1024 0
v -64 -1024 0
v -128 -1024 0
v -192 -1024 0
v -256 -1024 0
v -320 -1024 0
v -384 -1024 0
v -448 -1024 0
v -512 -1024 0
v -576 -1024 0
v -640 -1024 0
v -704 -1024 0
v -768 -1024 0
v -832 -1024 0
v -896 -1024 0
v -960 -1024 0
v -1024 -1024 0
v -1088 -1024 0
v -1152 -1024 0
v -1216 -1024 0
v -1280 -1024 0
v 0 -1088 0
v -64 -1088 0
v -128 -1088 0
v -192 -1088 0
v -256 -1088 0
v -320 -1088 0
v -384 -1088 0
v -448 -1088 0
v -512 -1088 0
v -576 -1088 0
v -640 -1088 0
v -704 -1088 0
v -768 -1088 0
v -832 -1088 0
v -896 -1088 0
v -960 -1088 0
v -1024 -1088 0
v -1088 -1088 0
v -1152 -1088 0
v -1216 -1088 0
v -1280 -1088 0
v 0 -1152 0
v -64 -1152 0
v -128 -1152 0
v -192 -1152 0
v -256 -1152 0
v -320 -1152 0
v -384 -1152 0
v -448 -1152 0
v -512 -1152 0
v -576 -1152 0
v -640 -1152 0
v -704 -1152 0
v -768 -1152 0
v -832 -1152 0
v -896 -1152 0
v -960 -1152 0
v -1024 -1152 0
v -1088 -1152 0
v -1152 -1152 0
v -1216 -1152 0
v -1280 -1152 0
v 0 -1216 0
v -64 -1216 0
v -128 -1216 0
v -192 -1216 0
v -256 -1216 0
v -320 -1216 0
v -384 -1216 0
v -448 -1216 0
v -512 -1216 0
v -576 -1216 0
v -640 -1216 0
v -704 -1216 0
v -768 -1216 0
v -832 -1216 0
v -896 -1216 0
v -960 -1216 0
v -1024 -1216 0
v -1088 -1216 0
v -1152 -1216 0
v -1216 -1216 0
v -1280 -1216 0
v 0 -1280 0
v -64 -1280 0
v -128 -1280 0
v -192 -1280 0
v -256 -1280 0
v -320 -1280 0
v -384 -1280 0
v -448 -1280 0
v -512 -1280 0
v -576 -1280 0
v -640 -1280 0
v -704 -1280 0
v -768 -1280 0
v -832 -1280 0
v -896 -1280 0
v -960 -1280 0
v -1024 -1280 0
v -1088 -1280 0
v -1152 -1280 0
v -1216 -1280 0
v -1280 -1280 0

# Texture cooridinates (Count = 12)
vt 0.2500305 0.7500305
vt 0.4999695 0.7500305
vt 0.4999695 0.9999695
vt 0.2500305 0.9999695
vt 3.051758E-05 0.5000305
vt 0.2499695 0.5000305
vt 0.2499695 0.7499695
vt 3.051758E-05 0.7499695
vt 3.051758E-05 0.7500305
vt 0.2499695 0.7500305
vt 0.2499695 0.9999695
vt 3.051758E-05 0.9999695

# Normal
vn 0 0 -1

# Groups (Count = 1)

g mesh_0001
f 1/1/1 2/2/1 3/3/1 4/4/1
f 2/1/1 5/2/1 6/3/1 3/4/1
f 5/1/1 7/2/1 8/3/1 6/4/1
f 7/1/1 9/2/1 10/3/1 8/4/1
f 9/1/1 11/2/1 12/3/1 10/4/1
f 11/1/1 13/2/1 14/3/1 12/4/1
f 13/1/1 15/2/1 16/3/1 14/4/1
f 15/1/1 17/2/1 18/3/1 16/4/1
f 17/1/1 19/2/1 20/3/1 18/4/1
f 19/1/1 21/2/1 22/3/1 20/4/1
f 21/1/1 23/2/1 24/3/1 22/4/1
f 23/1/1 25/2/1 26/3/1 24/4/1
f 25/1/1 27/2/1 28/3/1 26/4/1
f 27/1/1 29/2/1 30/3/1 28/4/1
f 29/1/1 31/2/1 32/3/1 30/4/1
f 31/1/1 33/2/1 34/3/1 32/4/1
f 33/1/1 35/2/1 36/3/1 34/4/1
f 35/1/1 37/2/1 38/3/1 36/4/1
f 37/1/1 39/2/1 40/3/1 38/4/1
f 39/1/1 41/2/1 42/3/1 40/4/1
f 43/1/1 44/2/1 2/3/1 1/4/1
f 44/5/1 45/6/1 5/7/1 2/8/1
f 45/5/1 46/6/1 7/7/1 5/8/1
f 46/5/1 47/6/1 9/7/1 7/8/1
f 47/5/1 48/6/1 11/7/1 9/8/1
f 48/5/1 49/6/1 13/7/1 11/8/1
f 49/5/1 50/6/1 15/7/1 13/8/1
f 50/5/1 51/6/1 17/7/1 15/8/1
f 51/5/1 52/6/1 19/7/1 17/8/1
f 52/5/1 53/6/1 21/7/1 19/8/1
f 53/5/1 54/6/1 23/7/1 21/8/1
f 54/5/1 55/6/1 25/7/1 23/8/1
f 55/5/1 56/6/1 27/7/1 25/8/1
f 56/5/1 57/6/1 29/7/1 27/8/1
f 57/5/1 58/6/1 31/7/1 29/8/1
f 58/5/1 59/6/1 33/7/1 31/8/1
f 59/5/1 60/6/1 35/7/1 33/8/1
f 60/5/1 61/6/1 37/7/1 35/8/1
f 61/5/1 62/6/1 39/7/1 37/8/1
f 62/1/1 63/2/1 41/3/1 39/4/1
f 64/1/1 65/2/1 44/3/1 43/4/1
f 65/9/1 66/10/1 45/11/1 44/12/1
f 66/9/1 67/10/1 46/11/1 45/12/1
f 67/9/1 68/10/1 47/11/1 46/12/1
f 68/9/1 69/10/1 48/11/1 47/12/1
f 69/9/1 70/10/1 49/11/1 48/12/1
f 70/9/1 71/10/1 50/11/1 49/12/1
f 71/9/1 72/10/1 51/11/1 50/12/1
f 72/9/1 73/10/1 52/11/1 51/12/1
f 73/9/1 74/10/1 53/11/1 52/12/1
f 74/9/1 75/10/1 54/11/1 53/12/1
f 75/9/1 76/10/1 55/11/1 54/12/1
f 76/9/1 77/10/1 56/11/1 55/12/1
f 77/9/1 78/10/1 57/11/1 56/12/1
f 78/9/1 79/10/1 58/11/1 57/12/1
f 79/9/1 80/10/1 59/11/1 58/12/1
f 80/9/1 81/10/1 60/11/1 59/12/1
f 81/9/1 82/10/1 61/11/1 60/12/1
f 82/9/1 83/10/1 62/11/1 61/12/1
f 83/1/1 84/2/1 63/3/1 62/4/1
f 85/1/1 86/2/1 65/3/1 64/4/1
f 86/9/1 87/10/1 66/11/1 65/12/1
f 87/9/1 88/10/1 67/11/1 66/12/1
f 88/9/1 89/10/1 68/11/1 67/12/1
f 89/9/1 90/10/1 69/11/1 68/12/1
f 90/9/1 91/10/1 70/11/1 69/12/1
f 91/9/1 92/10/1 71/11/1 70/12/1
f 92/9/1 93/10/1 72/11/1 71/12/1
f 93/9/1 94/10/1 73/11/1 72/12/1
f 94/9/1 95/10/1 74/11/1 73/12/1
f 95/9/1 96/10/1 75/11/1 74/12/1
f 96/9/1 97/10/1 76/11/1 75/12/1
f 97/9/1 98/10/1 77/11/1 76/12/1
f 98/9/1 99/10/1 78/11/1 77/12/1
f 99/9/1 100/10/1 79/11/1 78/12/1
f 100/9/1 101/10/1 80/11/1 79/12/1
f 101/9/1 102/10/1 81/11/1 80/12/1
f 102/9/1 103/10/1 82/11/1 81/12/1
f 103/9/1 104/10/1 83/11/1 82/12/1
f 104/1/1 105/2/1 84/3/1 83/4/1
f 106/1/1 107/2/1 86/3/1 85/4/1
f 107/1/1 108/2/1 87/3/1 86/4/1
f 108/1/1 109/2/1 88/3/1 87/4/1
f 109/1/1 110/2/1 89/3/1 88/4/1
f 110/1/1 111/2/1 90/3/1 89/4/1
f 111/1/1 112/2/1 91/3/1 90/4/1
f 112/1/1 113/2/1 92/3/1 91/4/1
f 113/1/1 114/2/1 93/3/1 92/4/1
f 114/9/1 115/10/1 94/11/1 93/12/1
f 115/9/1 116/10/1 95/11/1 94/12/1
f 116/9/1 117/10/1 96/11/1 95/12/1
f 117/9/1 118/10/1 97/11/1 96/12/1
f 118/9/1 119/10/1 98/11/1 97/12/1
f 119/9/1 120/10/1 99/11/1 98/12/1
f 120/9/1 121/10/1 100/11/1 99/12/1
f 121/9/1 122/10/1 101/11/1 100/12/1
f 122/9/1 123/10/1 102/11/1 101/12/1
f 123/9/1 124/10/1 103/11/1 102/12/1
f 124/9/1 125/10/1 104/11/1 103/12/1
f 125/1/1 126/2/1 105/3/1 104/4/1
f 127/1/1 128/2/1 107/3/1 106/4/1
f 128/5/1 129/6/1 108/7/1 107/8/1
f 129/5/1 130/6/1 109/7/1 108/8/1
f 130/5/1 131/6/1 110/7/1 109/8/1
f 131/5/1 132/6/1 111/7/1 110/8/1
f 132/5/1 133/6/1 112/7/1 111/8/1
f 133/5/1 134/6/1 113/7/1 112/8/1
f 134/5/1 135/6/1 114/7/1 113/8/1
f 135/9/1 136/10/1 115/11/1 114/12/1
f 136/9/1 137/10/1 116/11/1 115/12/1
f 137/9/1 138/10/1 117/11/1 116/12/1
f 138/9/1 139/10/1 118/11/1 117/12/1
f 139/9/1 140/10/1 119/11/1 118/12/1
f 140/9/1 141/10/1 120/11/1 119/12/1
f 141/9/1 142/10/1 121/11/1 120/12/1
f 142/9/1 143/10/1 122/11/1 121/12/1
f 143/9/1 144/10/1 123/11/1 122/12/1
f 144/9/1 145/10/1 124/11/1 123/12/1
f 145/9/1 146/10/1 125/11/1 124/12/1
f 146/1/1 147/2/1 126/3/1 125/4/1
f 148/1/1 149/2/1 128/3/1 127/4/1
f 149/9/1 150/10/1 129/11/1 128/12/1
f 150/9/1 151/10/1 130/11/1 129/12/1
f 151/9/1 152/10/1 131/11/1 130/12/1
f 152/9/1 153/10/1 132/11/1 131/12/1
f 153/9/1 154/10/1 133/11/1 132/12/1
f 154/9/1 155/10/1 134/11/1 133/12/1
f 155/9/1 156/10/1 135/11/1 134/12/1
f 156/9/1 157/10/1 136/11/1 135/12/1
f 157/9/1 158/10/1 137/11/1 136/12/1
f 158/9/1 159/10/1 138/11/1 137/12/1
f 159/9/1 160/10/1 139/11/1 138/12/1
f 160/9/1 161/10/1 140/11/1 139/12/1
f 161/1/1 162/2/1 141/3/1 140/4/1
f 162/1/1 163/2/1 142/3/1 141/4/1
f 163/1/1 164/2/1 143/3/1 142/4/1
f 164/1/1 165/2/1 144/3/1 143/4/1
f 165/1/1 166/2/1 145/3/1 144/4/1
f 166/1/1 167/2/1 146/3/1 145/4/1
f 167/1/1 168/2/1 147/3/1 146/4/1
f 169/1/1 170/2/1 149/3/1 148/4/1
f 170/9/1 171/10/1 150/11/1 149/12/1
f 171/9/1 172/10/1 151/11/1 150/12/1
f 172/9/1 173/10/1 152/11/1 151/12/1
f 173/9/1 174/10/1 153/11/1 152/12/1
f 174/9/1 175/10/1 154/11/1 153/12/1
f 175/9/1 176/10/1 155/11/1 154/12/1
f 176/9/1 177/10/1 156/11/1 155/12/1
f 177/9/1 178/10/1 157/11/1 156/12/1
f 178/9/1 179/10/1 158/11/1 157/12/1
f 179/9/1 180/10/1 159/11/1 158/12/1
f 180/9/1 181/10/1 160/11/1 159/12/1
f 181/9/1 182/10/1 161/11/1 160/12/1
f 182/5/1 183/6/1 162/7/1 161/8/1
f 183/5/1 184/6/1 163/7/1 162/8/1
f 184/5/1 185/6/1 164/7/1 163/8/1
f 185/5/1 186/6/1 165/7/1 164/8/1
f 186/5/1 187/6/1 166/7/1 165/8/1
f 187/5/1 188/6/1 167/7/1 166/8/1
f 188/1/1 189/2/1 168/3/1 167/4/1
f 190/1/1 191/2/1 170/3/1 169/4/1
f 191/9/1 192/10/1 171/11/1 170/12/1
f 192/9/1 193/10/1 172/11/1 171/12/1
f 193/9/1 194/10/1 173/11/1 172/12/1
f 194/9/1 195/10/1 174/11/1 173/12/1
f 195/9/1 196/10/1 175/11/1 174/12/1
f 196/9/1 197/10/1 176/11/1 175/12/1
f 197/9/1 198/10/1 177/11/1 176/12/1
f 198/9/1 199/10/1 178/11/1 177/12/1
f 199/9/1 200/10/1 179/11/1 178/12/1
f 200/9/1 201/10/1 180/11/1 179/12/1
f 201/9/1 202/10/1 181/11/1 180/12/1
f 202/9/1 203/10/1 182/11/1 181/12/1
f 203/9/1 204/10/1 183/11/1 182/12/1
f 204/9/1 205/10/1 184/11/1 183/12/1
f 205/9/1 206/10/1 185/11/1 184/12/1
f 206/9/1 207/10/1 186/11/1 185/12/1
f 207/9/1 208/10/1 187/11/1 186/12/1
f 208/9/1 209/10/1 188/11/1 187/12/1
f 209/1/1 210/2/1 189/3/1 188/4/1
f 211/1/1 212/2/1 191/3/1 190/4/1
f 212/9/1 213/10/1 192/11/1 191/12/1
f 213/9/1 214/10/1 193/11/1 192/12/1
f 214/9/1 215/10/1 194/11/1 193/12/1
f 215/9/1 216/10/1 195/11/1 194/12/1
f 216/9/1 217/10/1 196/11/1 195/12/1
f 217/9/1 218/10/1 197/11/1 196/12/1
f 218/9/1 219/10/1 198/11/1 197/12/1
f 219/9/1 220/10/1 199/11/1 198/12/1
f 220/9/1 221/10/1 200/11/1 199/12/1
f 221/9/1 222/10/1 201/11/1 200/12/1
f 222/9/1 223/10/1 202/11/1 201/12/1
f 223/9/1 224/10/1 203/11/1 202/12/1
f 224/9/1 225/10/1 204/11/1 203/12/1
f 225/9/1 226/10/1 205/11/1 204/12/1
f 226/9/1 227/10/1 206/11/1 205/12/1
f 227/9/1 228/10/1 207/11/1 206/12/1
f 228/9/1 229/10/1 208/11/1 207/12/1
f 229/9/1 230/10/1 209/11/1 208/12/1
f 230/1/1 231/2/1 210/3/1 209/4/1
f 232/1/1 233/2/1 212/3/1 211/4/1
f 233/9/1 234/10/1 213/11/1 212/12/1
f 234/9/1 235/10/1 214/11/1 213/12/1
f 235/9/1 236/10/1 215/11/1 214/12/1
f 236/9/1 237/10/1 216/11/1 215/12/1
f 237/9/1 238/10/1 217/11/1 216/12/1
f 238/9/1 239/10/1 218/11/1 217/12/1
f 239/9/1 240/10/1 219/11/1 218/12/1
f 240/9/1 241/10/1 220/11/1 219/12/1
f 241/9/1 242/10/1 221/11/1 220/12/1
f 242/9/1 243/10/1 222/11/1 221/12/1
f 243/9/1 244/10/1 223/11/1 222/12/1
f 244/9/1 245/10/1 224/11/1 223/12/1
f 245/9/1 246/10/1 225/11/1 224/12/1
f 246/9/1 247/10/1 226/11/1 225/12/1
f 247/9/1 248/10/1 227/11/1 226/12/1
f 248/9/1 249/10/1 228/11/1 227/12/1
f 249/9/1 250/10/1 229/11/1 228/12/1
f 250/9/1 251/10/1 230/11/1 229/12/1
f 251/1/1 252/2/1 231/3/1 230/4/1
f 253/1/1 254/2/1 233/3/1 232/4/1
f 254/9/1 255/10/1 234/11/1 233/12/1
f 255/9/1 256/10/1 235/11/1 234/12/1
f 256/9/1 257/10/1 236/11/1 235/12/1
f 257/9/1 258/10/1 237/11/1 236/12/1
f 258/9/1 259/10/1 238/11/1 237/12/1
f 259/9/1 260/10/1 239/11/1 238/12/1
f 260/9/1 261/10/1 240/11/1 239/12/1
f 261/9/1 262/10/1 241/11/1 240/12/1
f 262/9/1 263/10/1 242/11/1 241/12/1
f 263/1/1 264/2/1 243/3/1 242/4/1
f 264/1/1 265/2/1 244/3/1 243/4/1
f 265/1/1 266/2/1 245/3/1 244/4/1
f 266/1/1 267/2/1 246/3/1 245/4/1
f 267/9/1 268/10/1 247/11/1 246/12/1
f 268/9/1 269/10/1 248/11/1 247/12/1
f 269/9/1 270/10/1 249/11/1 248/12/1
f 270/9/1 271/10/1 250/11/1 249/12/1
f 271/9/1 272/10/1 251/11/1 250/12/1
f 272/1/1 273/2/1 252/3/1 251/4/1
f 274/1/1 275/2/1 254/3/1 253/4/1
f 275/9/1 276/10/1 255/11/1 254/12/1
f 276/9/1 277/10/1 256/11/1 255/12/1
f 277/9/1 278/10/1 257/11/1 256/12/1
f 278/9/1 279/10/1 258/11/1 257/12/1
f 279/9/1 280/10/1 259/11/1 258/12/1
f 280/9/1 281/10/1 260/11/1 259/12/1
f 281/9/1 282/10/1 261/11/1 260/12/1
f 282/9/1 283/10/1 262/11/1 261/12/1
f 283/9/1 284/10/1 263/11/1 262/12/1
f 284/1/1 285/2/1 264/3/1 263/4/1
f 285/1/1 286/2/1 265/3/1 264/4/1
f 286/1/1 287/2/1 266/3/1 265/4/1
f 287/1/1 288/2/1 267/3/1 266/4/1
f 288/9/1 289/10/1 268/11/1 267/12/1
f 289/9/1 290/10/1 269/11/1 268/12/1
f 290/9/1 291/10/1 270/11/1 269/12/1
f 291/9/1 292/10/1 271/11/1 270/12/1
f 292/9/1 293/10/1 272/11/1 271/12/1
f 293/1/1 294/2/1 273/3/1 272/4/1
f 295/1/1 296/2/1 275/3/1 274/4/1
f 296/9/1 297/10/1 276/11/1 275/12/1
f 297/9/1 298/10/1 277/11/1 276/12/1
f 298/9/1 299/10/1 278/11/1 277/12/1
f 299/9/1 300/10/1 279/11/1 278/12/1
f 300/9/1 301/10/1 280/11/1 279/12/1
f 301/9/1 302/10/1 281/11/1 280/12/1
f 302/9/1 303/10/1 282/11/1 281/12/1
f 303/9/1 304/10/1 283/11/1 282/12/1
f 304/9/1 305/10/1 284/11/1 283/12/1
f 305/1/1 306/2/1 285/3/1 284/4/1
f 306/1/1 307/2/1 286/3/1 285/4/1
f 307/1/1 308/2/1 287/3/1 286/4/1
f 308/1/1 309/2/1 288/3/1 287/4/1
f 309/9/1 310/10/1 289/11/1 288/12/1
f 310/9/1 311/10/1 290/11/1 289/12/1
f 311/9/1 312/10/1 291/11/1 290/12/1
f 312/9/1 313/10/1 292/11/1 291/12/1
f 313/9/1 314/10/1 293/11/1 292/12/1
f 314/1/1 315/2/1 294/3/1 293/4/1
f 316/1/1 317/2/1 296/3/1 295/4/1
f 317/9/1 318/10/1 297/11/1 296/12/1
f 318/9/1 319/10/1 298/11/1 297/12/1
f 319/9/1 320/10/1 299/11/1 298/12/1
f 320/9/1 321/10/1 300/11/1 299/12/1
f 321/9/1 322/10/1 301/11/1 300/12/1
f 322/9/1 323/10/1 302/11/1 301/12/1
f 323/9/1 324/10/1 303/11/1 302/12/1
f 324/9/1 325/10/1 304/11/1 303/12/1
f 325/9/1 326/10/1 305/11/1 304/12/1
f 326/5/1 327/6/1 306/7/1 305/8/1
f 327/5/1 328/6/1 307/7/1 306/8/1
f 328/5/1 329/6/1 308/7/1 307/8/1
f 329/5/1 330/6/1 309/7/1 308/8/1
f 330/9/1 331/10/1 310/11/1 309/12/1
f 331/9/1 332/10/1 311/11/1 310/12/1
f 332/9/1 333/10/1 312/11/1 311/12/1
f 333/9/1 334/10/1 313/11/1 312/12/1
f 334/9/1 335/10/1 314/11/1 313/12/1
f 335/1/1 336/2/1 315/3/1 314/4/1
f 337/1/1 338/2/1 317/3/1 316/4/1
f 338/9/1 339/10/1 318/11/1 317/12/1
f 339/9/1 340/10/1 319/11/1 318/12/1
f 340/9/1 341/10/1 320/11/1 319/12/1
f 341/9/1 342/10/1 321/11/1 320/12/1
f 342/9/1 343/10/1 322/11/1 321/12/1
f 343/9/1 344/10/1 323/11/1 322/12/1
f 344/9/1 345/10/1 324/11/1 323/12/1
f 345/9/1 346/10/1 325/11/1 324/12/1
f 346/9/1 347/10/1 326/11/1 325/12/1
f 347/9/1 348/10/1 327/11/1 326/12/1
f 348/9/1 349/10/1 328/11/1 327/12/1
f 349/9/1 350/10/1 329/11/1 328/12/1
f 350/9/1 351/10/1 330/11/1 329/12/1
f 351/9/1 352/10/1 331/11/1 330/12/1
f 352/9/1 353/10/1 332/11/1 331/12/1
f 353/9/1 354/10/1 333/11/1 332/12/1
f 354/9/1 355/10/1 334/11/1 333/12/1
f 355/9/1 356/10/1 335/11/1 334/12/1
f 356/1/1 357/2/1 336/3/1 335/4/1
f 358/1/1 359/2/1 338/3/1 337/4/1
f 359/1/1 360/2/1 339/3/1 338/4/1
f 360/1/1 361/2/1 340/3/1 339/4/1
f 361/1/1 362/2/1 341/3/1 340/4/1
f 362/9/1 363/10/1 342/11/1 341/12/1
f 363/9/1 364/10/1 343/11/1 342/12/1
f 364/9/1 365/10/1 344/11/1 343/12/1
f 365/9/1 366/10/1 345/11/1 344/12/1
f 366/9/1 367/10/1 346/11/1 345/12/1
f 367/9/1 368/10/1 347/11/1 346/12/1
f 368/9/1 369/10/1 348/11/1 347/12/1
f 369/9/1 370/10/1 349/11/1 348/12/1
f 370/9/1 371/10/1 350/11/1 349/12/1
f 371/9/1 372/10/1 351/11/1 350/12/1
f 372/9/1 373/10/1 352/11/1 351/12/1
f 373/9/1 374/10/1 353/11/1 352/12/1
f 374/9/1 375/10/1 354/11/1 353/12/1
f 375/9/1 376/10/1 355/11/1 354/12/1
f 376/9/1 377/10/1 356/11/1 355/12/1
f 377/1/1 378/2/1 357/3/1 356/4/1
f 379/1/1 380/2/1 359/3/1 358/4/1
f 380/5/1 381/6/1 360/7/1 359/8/1
f 381/5/1 382/6/1 361/7/1 360/8/1
f 382/5/1 383/6/1 362/7/1 361/8/1
f 383/9/1 384/10/1 363/11/1 362/12/1
f 384/9/1 385/10/1 364/11/1 363/12/1
f 385/9/1 386/10/1 365/11/1 364/12/1
f 386/9/1 387/10/1 366/11/1 365/12/1
f 387/9/1 388/10/1 367/11/1 366/12/1
f 388/9/1 389/10/1 368/11/1 367/12/1
f 389/9/1 390/10/1 369/11/1 368/12/1
f 390/9/1 391/10/1 370/11/1 369/12/1
f 391/9/1 392/10/1 371/11/1 370/12/1
f 392/9/1 393/10/1 372/11/1 371/12/1
f 393/9/1 394/10/1 373/11/1 372/12/1
f 394/9/1 395/10/1 374/11/1 373/12/1
f 395/9/1 396/10/1 375/11/1 374/12/1
f 396/9/1 397/10/1 376/11/1 375/12/1
f 397/9/1 398/10/1 377/11/1 376/12/1
f 398/1/1 399/2/1 378/3/1 377/4/1
f 400/1/1 401/2/1 380/3/1 379/4/1
f 401/9/1 402/10/1 381/11/1 380/12/1
f 402/9/1 403/10/1 382/11/1 381/12/1
f 403/9/1 404/10/1 383/11/1 382/12/1
f 404/9/1 405/10/1 384/11/1 383/12/1
f 405/9/1 406/10/1 385/11/1 384/12/1
f 406/9/1 407/10/1 386/11/1 385/12/1
f 407/9/1 408/10/1 387/11/1 386/12/1
f 408/9/1 409/10/1 388/11/1 387/12/1
f 409/9/1 410/10/1 389/11/1 388/12/1
f 410/9/1 411/10/1 390/11/1 389/12/1
f 411/9/1 412/10/1 391/11/1 390/12/1
f 412/9/1 413/10/1 392/11/1 391/12/1
f 413/9/1 414/10/1 393/11/1 392/12/1
f 414/9/1 415/10/1 394/11/1 393/12/1
f 415/9/1 416/10/1 395/11/1 394/12/1
f 416/9/1 417/10/1 396/11/1 395/12/1
f 417/9/1 418/10/1 397/11/1 396/12/1
f 418/9/1 419/10/1 398/11/1 397/12/1
f 419/1/1 420/2/1 399/3/1 398/4/1
f 421/1/1 422/2/1 401/3/1 400/4/1
f 422/1/1 423/2/1 402/3/1 401/4/1
f 423/1/1 424/2/1 403/3/1 402/4/1
f 424/1/1 425/2/1 404/3/1 403/4/1
f 425/1/1 426/2/1 405/3/1 404/4/1
f 426/1/1 427/2/1 406/3/1 405/4/1
f 427/1/1 428/2/1 407/3/1 406/4/1
f 428/1/1 429/2/1 408/3/1 407/4/1
f 429/1/1 430/2/1 409/3/1 408/4/1
f 430/1/1 431/2/1 410/3/1 409/4/1
f 431/1/1 432/2/1 411/3/1 410/4/1
f 432/1/1 433/2/1 412/3/1 411/4/1
f 433/1/1 434/2/1 413/3/1 412/4/1
f 434/1/1 435/2/1 414/3/1 413/4/1
f 435/1/1 436/2/1 415/3/1 414/4/1
f 436/1/1 437/2/1 416/3/1 415/4/1
f 437/1/1 438/2/1 417/3/1 416/4/1
f 438/1/1 439/2/1 418/3/1 417/4/1
f 439/1/1 440/2/1 419/3/1 418/4/1
f 440/1/1 441/2/1 420/3/1 419/4/1

